<svg id="color" enable-background="new 0 0 24 24" height="512" viewBox="0 0 24 24" width="512" xmlns="http://www.w3.org/2000/svg"><path d="m21.297 0h-8.893c-.711 0-1.408.289-1.911.791l-9.702 9.702c-1.054 1.054-1.054 2.77 0 3.823l8.893 8.892c.527.528 1.219.792 1.911.792s1.385-.264 1.912-.792l9.702-9.701c.503-.503.792-1.2.792-1.911v-8.892c0-1.491-1.213-2.704-2.704-2.704zm-1.797 6c-.828 0-1.5-.672-1.5-1.5s.672-1.5 1.5-1.5 1.5.672 1.5 1.5-.672 1.5-1.5 1.5z" fill="#ffc107"/><g fill="#fafafa"><path d="m11.043 12-.354.354-.707-.707 1.237-1.237c.293-.293.293-.768 0-1.061s-.768-.293-1.061 0l-1.768 1.768c-.293.293-.293.768 0 1.061l1.768 1.768c.293.293.768.293 1.061 0l.884-.884c.195-.195.512-.195.707 0s.195.512 0 .707l-.884.884c-.293.293-.293.768 0 1.061.146.146.338.22.53.22s.384-.073.53-.22l.884-.884c.378-.378.586-.88.586-1.414s-.208-1.036-.586-1.414c-.778-.781-2.048-.781-2.827-.002z"/><path d="m10.513 16.066-1.237 1.237-.354-.353c-.195-.195-.195-.513 0-.707.377-.378.586-.88.586-1.414s-.208-1.037-.586-1.415c-.781-.78-2.052-.778-2.829 0l-.884.884c-.293.293-.293.768 0 1.061s.768.293 1.061 0l.884-.884c.194-.195.512-.195.708 0 .095.095.146.221.146.354s-.052.258-.146.353c-.378.378-.586.88-.586 1.415 0 .534.208 1.036.586 1.414l.884.884c.147.146.338.22.53.22s.384-.073.53-.22l1.768-1.768c.293-.293.293-.768 0-1.061-.294-.293-.768-.293-1.061 0z"/><path d="m14.849 4.891c-.411.046-.708.416-.662.828l.707 6.364c.042.384.367.667.744.667l.084-.005c.411-.046.708-.416.662-.828l-.707-6.364c-.045-.412-.411-.72-.828-.662z"/><path d="m12.811 9.714c.32 0 .641-.121.884-.365.487-.487.487-1.28 0-1.768-.486-.488-1.281-.488-1.768 0-.487.487-.487 1.28 0 1.768.243.244.563.365.884.365z"/><path d="m16.877 8.288c-.487.487-.487 1.28 0 1.768.243.244.563.365.884.365.32 0 .641-.121.884-.365.487-.487.487-1.28 0-1.768s-1.282-.488-1.768 0z"/></g><path d="m17.761 10.421c-.32 0-.641-.121-.884-.365-.487-.487-.487-1.28 0-1.768.243-.244.564-.366.884-.366s.641.122.884.366c.487.487.487 1.28 0 1.768-.244.244-.564.365-.884.365zm5.48-9.595-2.647 2.647c.252.269.406.63.406 1.027 0 .828-.672 1.5-1.5 1.5-.397 0-.758-.154-1.026-.406l-2.514 2.513.423 3.81c.046.412-.251.782-.662.828l-.084.005c-.377 0-.702-.283-.744-.667l-.291-2.619-1.96 1.96c.449.041.886.233 1.228.576.378.378.586.88.586 1.414s-.208 1.036-.586 1.414l-.884.884c-.146.146-.338.22-.53.22s-.384-.073-.53-.22c-.293-.293-.293-.768 0-1.061l.884-.884c.195-.195.195-.512 0-.707-.098-.098-.226-.146-.353-.146s-.256.049-.354.146l-.884.884c-.146.146-.338.22-.53.22s-.384-.073-.53-.22l-.018-.018-.649.649c.011.084.016.169.016.254 0 .534-.209 1.036-.586 1.414-.195.194-.195.512 0 .707l.354.354 1.237-1.237c.146-.146.338-.22.53-.22s.384.073.53.22c.293.293.293.768 0 1.061l-1.768 1.768c-.146.146-.338.22-.53.22s-.384-.073-.53-.22l-.884-.884c-.334-.334-.535-.764-.577-1.228l-2.013 2.013 4.413 4.412c.527.527 1.219.791 1.911.791s1.385-.264 1.912-.792l9.702-9.701c.503-.503.792-1.2.792-1.911v-8.892c0-.729-.29-1.391-.76-1.878z" fill="#dea806"/><path d="m12.643 11.424-2.502 2.502.018.018c.146.146.338.22.53.22s.384-.073.53-.22l.884-.884c.098-.098.226-.146.354-.146s.256.049.353.146c.195.195.195.512 0 .707l-.884.884c-.293.293-.293.768 0 1.061.146.146.338.22.53.22s.384-.073.53-.22l.884-.884c.378-.378.586-.88.586-1.414s-.208-1.036-.586-1.414c-.341-.342-.779-.534-1.227-.576z" fill="#dadada"/><path d="m9.492 14.575-2.208 2.208c.043.464.244.894.577 1.228l.884.884c.147.146.338.22.53.22s.384-.073.53-.22l1.768-1.768c.293-.293.293-.768 0-1.061-.146-.146-.338-.22-.53-.22s-.384.073-.53.22l-1.237 1.237-.354-.353c-.195-.195-.195-.513 0-.707.377-.378.586-.88.586-1.414 0-.086-.006-.17-.016-.254z" fill="#dadada"/><path d="m15.96 8.107-1.358 1.358.291 2.619c.042.384.367.667.744.667l.084-.005c.411-.046.708-.416.662-.828z" fill="#dadada"/><path d="m20.595 3.474-2.12 2.12c.269.252.63.406 1.027.406.828 0 1.5-.672 1.5-1.5 0-.397-.155-.758-.407-1.026z" fill="#dedede"/><path d="m18.691 8.337-1.765 1.765c.236.213.536.319.835.319.32 0 .641-.121.884-.365.471-.472.486-1.229.046-1.719z" fill="#dadada"/><path d="m13.759 7.65-1.763 1.763c.233.201.524.301.815.301.32 0 .641-.121.884-.365.464-.465.486-1.208.064-1.699z" fill="#dadada"/></svg>